# Blender 4.3.2
# www.blender.org
mtllib Sign_Board.mtl
o Cube
v 0.116378 6.352993 -2.329228
v 0.116378 3.550053 -2.329228
v 0.116378 6.352993 2.329228
v 0.116378 3.550053 2.329228
v -0.116378 6.352993 -2.329228
v -0.116378 3.550053 -2.329228
v -0.116378 6.352993 2.329228
v -0.116378 3.550053 2.329228
v 0.281813 6.406895 -2.883502
v 0.281813 2.206228 -2.883502
v 0.281813 6.406895 -2.307079
v 0.281813 2.206228 -2.307079
v -0.297760 6.406895 -2.883502
v -0.297760 2.206228 -2.883502
v -0.297760 6.406895 -2.307079
v -0.297760 2.206228 -2.307079
v 0.281813 6.406895 2.883502
v 0.281813 2.206228 2.883502
v 0.281813 6.406895 2.307078
v 0.281813 2.206228 2.307078
v -0.297760 6.406895 2.883502
v -0.297760 2.206228 2.883502
v -0.297760 6.406895 2.307078
v -0.297760 2.206228 2.307078
vn -0.0000 1.0000 -0.0000
vn -0.0000 -0.0000 1.0000
vn -1.0000 -0.0000 -0.0000
vn -0.0000 -1.0000 -0.0000
vn 1.0000 -0.0000 -0.0000
vn -0.0000 -0.0000 -1.0000
vt 0.333333 0.000000
vt 0.333333 0.333333
vt 0.000000 0.333333
vt 0.000000 0.000000
vt 0.333333 0.666667
vt 0.000000 0.666667
vt 0.000000 0.333333
vt 0.333333 0.333333
vt 0.666667 0.333333
vt 0.333333 0.333333
vt 0.333333 0.000000
vt 0.666667 0.000000
vt 0.666667 0.333333
vt 0.666667 0.666667
vt 0.333333 0.666667
vt 0.333333 0.333333
vt 0.333333 1.000000
vt 0.000000 1.000000
vt 0.000000 0.666667
vt 0.333333 0.666667
vt 0.666667 1.000000
vt 0.333333 1.000000
vt 0.333333 0.666667
vt 0.666667 0.666667
s 0
usemtl Stylized_Wood.002
f 1/1/1 5/2/1 7/3/1 3/4/1
f 4/5/2 3/6/2 7/7/2 8/8/2
f 8/9/3 7/10/3 5/11/3 6/12/3
f 6/13/4 2/14/4 4/15/4 8/16/4
f 2/17/5 1/18/5 3/19/5 4/20/5
f 6/21/6 5/22/6 1/23/6 2/24/6
usemtl Stylized_Wood.003
f 9/1/1 13/2/1 15/3/1 11/4/1
f 12/5/2 11/6/2 15/7/2 16/8/2
f 16/9/3 15/10/3 13/11/3 14/12/3
f 14/13/4 10/14/4 12/5/4 16/8/4
f 10/17/5 9/18/5 11/19/5 12/5/5
f 14/21/6 13/22/6 9/23/6 10/14/6
f 17/1/1 19/4/1 23/3/1 21/2/1
f 20/5/6 24/8/6 23/7/6 19/6/6
f 24/9/3 22/12/3 21/11/3 23/10/3
f 22/13/4 24/8/4 20/5/4 18/14/4
f 18/17/5 20/5/5 19/19/5 17/18/5
f 22/21/2 18/14/2 17/23/2 21/22/2
